<?xml version="1.0" encoding="UTF-8" standalone="no"?>
<!-- Created with Inkscape (http://www.inkscape.org/) -->

<svg
   xmlns:dc="http://purl.org/dc/elements/1.1/"
   xmlns:cc="http://creativecommons.org/ns#"
   xmlns:rdf="http://www.w3.org/1999/02/22-rdf-syntax-ns#"
   xmlns:svg="http://www.w3.org/2000/svg"
   xmlns="http://www.w3.org/2000/svg"
   xmlns:sodipodi="http://sodipodi.sourceforge.net/DTD/sodipodi-0.dtd"
   xmlns:inkscape="http://www.inkscape.org/namespaces/inkscape"
   width="74.5"
   height="59.85714"
   id="svg2"
   version="1.1"
   inkscape:version="0.48.4 r9939"
   sodipodi:docname="check.svg">
  <defs
     id="defs4" />
  <sodipodi:namedview
     id="base"
     pagecolor="#ffffff"
     bordercolor="#666666"
     borderopacity="1.0"
     inkscape:pageopacity="0.0"
     inkscape:pageshadow="2"
     inkscape:zoom="3.959798"
     inkscape:cx="-32.581941"
     inkscape:cy="26.5638"
     inkscape:document-units="px"
     inkscape:current-layer="layer1"
     showgrid="false"
     fit-margin-top="0"
     fit-margin-left="0"
     fit-margin-right="0"
     fit-margin-bottom="0"
     inkscape:window-width="1475"
     inkscape:window-height="730"
     inkscape:window-x="0"
     inkscape:window-y="28"
     inkscape:window-maximized="0" />
  <metadata
     id="metadata7">
    <rdf:RDF>
      <cc:Work
         rdf:about="">
        <dc:format>image/svg+xml</dc:format>
        <dc:type
           rdf:resource="http://purl.org/dc/dcmitype/StillImage" />
        <dc:title></dc:title>
      </cc:Work>
    </rdf:RDF>
  </metadata>
  <g
     inkscape:label="Layer 1"
     inkscape:groupmode="layer"
     id="layer1"
     transform="translate(-287.92857,-549.57647)">
    <path
       id="path3882"
       style="font-size:medium;font-style:normal;font-variant:normal;font-weight:normal;font-stretch:normal;text-indent:0;text-align:start;text-decoration:none;line-height:normal;letter-spacing:normal;word-spacing:normal;text-transform:none;direction:ltr;block-progression:tb;writing-mode:lr-tb;text-anchor:start;baseline-shift:baseline;color:#000000;fill:#0088fe;fill-opacity:1;stroke:none;stroke-width:7;marker:none;visibility:visible;display:inline;overflow:visible;enable-background:accumulate;font-family:Sans;-inkscape-font-specification:Sans"
       d="m 352.53283,553.37675 a 3.50035,3.50035 0 0 0 -2.40625,1.03125 l -37.0625,36.8125 -19.3125,-13.6875 a 3.507421,3.507421 0 1 0 -4.0625,5.71875 l 21.71875,15.40625 2.40625,1.6875 2.09375,-2.0625 39.125,-38.90625 a 3.50035,3.50035 0 0 0 -2.5,-6 z m -8.66518,19.73272 -5.71875,5.6875 c 0.19896,1.13974 0.34375,2.30159 0.34375,3.5 0,11.14918 -8.97582,20.09375 -20.125,20.09375 -6.08244,0.46466 -12.25655,-3.06228 -16.0625,-8 -3.54583,-2.51631 -7.10914,-5.01676 -10.65625,-7.53125 2.17773,12.76926 13.34133,22.53125 26.71875,22.53125 14.93226,0 27.125,-12.16149 27.125,-27.09375 0,-3.22179 -0.58475,-6.31573 -1.625,-9.1875 z m -6.5,-9.09375 c -4.01912,-6.77222 -13.44943,-8.80701 -19,-8.84375 -12.2915,0 -22.70098,8.28072 -26,19.53125 2.237,0.89773 4.3209,2.10716 6.34375,3.46875 1.8901,-9.15339 9.92452,-16 19.65625,-16 5.7567,0 10.90103,2.40047 14.5625,6.25"
       inkscape:connector-curvature="0" />
  </g>
</svg>
