<?xml version="1.0" encoding="UTF-8" standalone="no"?>
<!-- Created with Inkscape (http://www.inkscape.org/) -->

<svg
   xmlns:dc="http://purl.org/dc/elements/1.1/"
   xmlns:cc="http://creativecommons.org/ns#"
   xmlns:rdf="http://www.w3.org/1999/02/22-rdf-syntax-ns#"
   xmlns:svg="http://www.w3.org/2000/svg"
   xmlns="http://www.w3.org/2000/svg"
   xmlns:sodipodi="http://sodipodi.sourceforge.net/DTD/sodipodi-0.dtd"
   xmlns:inkscape="http://www.inkscape.org/namespaces/inkscape"
   width="1290.642"
   height="237.66162"
   id="svg2"
   version="1.1"
   inkscape:version="0.48.4 r9939"
   sodipodi:docname="logo.svg">
  <defs
     id="defs4" />
  <sodipodi:namedview
     id="base"
     pagecolor="#ffffff"
     bordercolor="#666666"
     borderopacity="1.0"
     inkscape:pageopacity="0.0"
     inkscape:pageshadow="2"
     inkscape:zoom="0.49497475"
     inkscape:cx="495.2854"
     inkscape:cy="71.424443"
     inkscape:document-units="px"
     inkscape:current-layer="layer1"
     showgrid="false"
     fit-margin-top="0"
     fit-margin-left="0"
     fit-margin-right="0"
     fit-margin-bottom="0"
     inkscape:window-width="1316"
     inkscape:window-height="670"
     inkscape:window-x="376"
     inkscape:window-y="137"
     inkscape:window-maximized="0" />
  <metadata
     id="metadata7">
    <rdf:RDF>
      <cc:Work
         rdf:about="">
        <dc:format>image/svg+xml</dc:format>
        <dc:type
           rdf:resource="http://purl.org/dc/dcmitype/StillImage" />
        <dc:title></dc:title>
      </cc:Work>
    </rdf:RDF>
  </metadata>
  <g
     inkscape:label="Layer 1"
     inkscape:groupmode="layer"
     id="layer1"
     transform="translate(358.52342,-366.125)">
    <path
       id="path3011-6-5-3-5"
       style="fill:#ffffff;fill-opacity:1"
       d="m -139.36722,366.125 -41.78125,160.33756 -45.25,-41.49208 -0.0937,0.4375 -44.5,41.30458 -41.78125,-160.33756 -45.75,11.34375 52.46875,221.6875 40.25,-0.56488 40.25,-34.91006 39.73438,34.76944 39.73437,0.42425 52.468745,-221.6875 z m 109.542891,232.92017 -0.66667,-179.83299 -56.887532,0 -0.483897,-47.30034 161.568865,-0.36401 1,24.23469 -0.26887,23.42966 -54.586311,0 -1.36495,180.49966 z m 120,0 0.53333,-227.13333 161.568869,-0.36401 0.73113,47.66401 -113.15774,1.63091 0.592,47.83391 96.45875,2.61697 -0.64301,45.72451 -97.25,2.1937 -0.52269,80.5 z m 358.633849,1.2932 0.7088,-227.22998 47.12453,-0.60335 0.50847,228.5 z m -179,0 0.53333,-227.13333 161.56887,-0.36401 0.73113,47.66401 -113.15774,1.63091 0.592,47.83391 96.45875,2.61697 -0.64301,45.72451 -97.25,2.1937 -0.52269,80.5 z m 351.55357,2.59406 c -30.78144,-2.97446 -60.70162,-19.28228 -80.24645,-43.73786 -8.30137,-10.38713 -17.93709,-28.9794 -21.40513,-41.3015 -11.49714,-40.8499 -0.83607,-83.78232 28.35568,-114.18913 33.85937,-35.26871 85.79993,-46.2747 130.52165,-27.65701 8.69488,3.61969 24.45907,12.86049 25.9375,15.20429 0.76241,1.20867 0.041,2.82733 -3.08231,6.91591 -5.9889,7.83977 -10.89845,15.85633 -15.35611,25.07422 -2.17277,4.49301 -4.30482,8.52344 -4.73788,8.9565 -0.43306,0.43306 -3.17183,-1.00427 -6.08617,-3.19405 -12.33361,-9.2673 -25.35789,-13.4211 -42.12102,-13.43355 -20.01833,-0.0149 -34.67296,6.08656 -49.12977,20.4551 -7.26964,7.22525 -9.34941,10.06669 -13.19572,18.02838 -17.3975,36.01209 -3.58227,76.82719 31.82549,94.02383 11.05541,5.36932 19.01481,7.21735 31.0049,7.19878 15.67083,-0.0243 29.20604,-4.4202 41.20219,-13.38152 2.8639,-2.13938 5.7889,-3.85542 6.5,-3.81343 0.7111,0.042 3.65591,4.87949 6.54403,10.75 2.88812,5.87051 8.17562,14.61675 11.75,19.43609 3.57438,4.81934 6.49888,9.19007 6.49888,9.71274 0,1.62088 -11.75443,9.03032 -22.36984,14.10089 -12.16403,5.81029 -25.80608,9.60435 -39.22557,10.90923 -11.02217,1.07177 -11.50623,1.07056 -23.18435,-0.0579 z M 812.5625,367.28125 c -29.46121,0.2014 -59.13511,11.3851 -82.4375,34.6875 -33.9578,33.9578 -44.08175,85.10881 -25.53125,129.09375 16.51282,39.1534 52.616,66.43842 95.0625,71.90625 9.1913,1.184 27.6991,0.41197 37.3125,-1.5625 75.9219,-15.59344 117.2717,-99.28913 82.9375,-167.90625 -21.67342,-43.31428 -64.28506,-66.5131 -107.34375,-66.21875 z m -1.375,48.34375 c 7.3331,-0.16553 15.0273,0.44602 19.96875,1.78125 52.8972,14.29344 70.50405,79.1218 31.96875,117.6875 -10.8049,10.81347 -24.75645,17.66705 -40.40625,19.84375 -14.3967,2.00238 -26.97805,-0.16322 -40.59375,-6.96875 -17.5289,-8.76138 -29.88625,-23.82983 -36.09375,-44 -2.9263,-9.50848 -3.14355,-26.04807 -0.46875,-35.96875 6.6185,-24.54811 26.09285,-44.02786 50.59375,-50.625 3.85188,-1.03723 9.32773,-1.62125 15.03125,-1.75 z"
       inkscape:connector-curvature="0"
       sodipodi:nodetypes="ccccccccccccccccccccccccccccccccccccccccccccccccccccssssssssssssssscsssssccsssssssssssssscs" />
  </g>
</svg>
